<svg width="785" height="191" viewBox="0 0 785 191" fill="none" xmlns="http://www.w3.org/2000/svg">
<path fill-rule="evenodd" clip-rule="evenodd" d="M259.576 115.816C262.371 118.495 261.57 118.182 268.073 116.222C273.776 114.366 271.071 113.751 276.177 116.732C280.775 119.516 288.281 122.288 291.775 124.445C290.467 127.426 279.276 137.204 276.571 141.217C277.574 141.728 278.374 142.145 279.468 142.656C281.169 143.479 280.764 143.479 282.77 142.25C287.165 139.675 301.276 131.439 304.071 130.21C307.767 131.857 317.573 137.007 320.965 136.798C322.565 136.694 325.169 136.288 324.662 134.223C323.365 129.178 314.563 126.405 308.861 123.83C306.561 122.798 307.159 122.903 306.663 120.328C306.054 117.555 302.256 97.3848 301.366 96.3525C300.971 96.0394 297.872 94.7055 297.263 94.3923C296.959 96.2481 296.768 98.3012 296.666 100.261L295.663 111.686C295.663 113.542 295.359 115.7 295.066 117.451C292.462 116.117 289.87 114.98 287.165 113.647C273.765 107.058 276.165 111.489 273.066 104.077C271.263 99.9598 271.263 97.4892 267.363 98.104C268.073 106.351 265.876 111.489 259.576 115.816ZM373.372 36.0612C369.765 37.1978 370.577 37.3022 365.573 32.5583C361.177 28.4406 363.871 29.0554 357.977 29.5773C352.781 29.9833 344.779 29.2642 340.677 29.6817C340.575 32.8714 346.672 46.6626 347.473 51.4994C346.368 51.4994 345.478 51.4994 344.272 51.4994C342.367 51.4994 342.773 51.7081 341.375 49.7479C338.479 45.4215 329.271 31.7347 327.175 29.4729C323.072 29.3686 312.174 29.5773 309.176 28.0347C307.779 27.2111 305.581 25.5641 306.877 23.917C310.179 20.0082 319.274 21.3421 325.473 21.5509C327.975 21.5509 327.366 21.4465 328.978 19.3935C330.68 17.1317 342.48 0.55675 343.675 0.0463958C344.17 -0.0579948 347.574 0.0463958 348.171 0.0463958C347.766 1.90223 347.067 3.74646 346.368 5.6023L342.469 16.4009C341.77 18.048 341.071 20.2054 340.564 21.8524C343.46 21.748 346.368 21.8524 349.366 21.8524C364.164 21.8524 360.062 24.8334 366.069 19.4862C369.36 16.5053 370.363 14.3363 373.665 16.6097C369.664 23.7199 369.472 29.3686 373.372 36.0612ZM374.972 25.5641C373.473 25.3553 372.966 27.7215 374.679 28.0347L377.08 28.3478C378.579 28.661 379.187 26.1904 377.486 25.8773L374.972 25.5641ZM587.35 190.223C588.15 191.87 590.348 190.629 589.649 189.191L589.052 187.857C588.252 186.314 586.054 187.544 586.854 188.993L587.35 190.223ZM583.552 182.092C584.352 183.635 586.55 182.51 585.75 180.955L584.645 178.693C583.946 177.151 581.749 178.38 582.447 179.819L583.552 182.092ZM579.055 173.033C579.754 174.471 582.053 173.439 581.253 171.897L580.058 169.635C579.359 168.196 577.162 169.229 577.86 170.876L579.055 173.033ZM574.254 164.183C575.156 165.726 577.252 164.288 576.452 162.942L575.156 160.68C574.254 159.138 572.259 160.576 573.059 161.91L574.254 164.183ZM569.25 155.438C570.152 156.876 572.248 155.542 571.346 154.104L570.05 151.946C569.25 150.508 567.052 151.842 567.954 153.28L569.25 155.438ZM563.953 146.796C564.753 148.13 566.951 146.901 566.049 145.463L564.652 143.305C563.851 141.971 561.654 143.201 562.657 144.743L563.953 146.796ZM558.453 138.457C559.456 139.791 561.349 138.248 560.448 136.914L559.05 134.861C558.047 133.527 556.052 135.07 557.055 136.404L558.453 138.457ZM552.66 130.221C553.663 131.555 555.557 130.013 554.565 128.679L553.066 126.626C552.063 125.292 550.169 126.939 551.172 128.168L552.66 130.221ZM546.856 122.508C547.757 123.019 548.851 122.195 548.76 121.174C548.862 120.56 548.366 119.736 547.656 119.632L546.856 118.599C545.853 117.37 543.858 118.912 544.951 120.246L545.154 120.56L544.76 120.664C543.159 121.279 544.162 123.645 545.661 123.03L546.856 122.508ZM540.15 114.482C541.356 115.723 543.046 113.971 541.953 112.73L540.353 110.874C539.158 109.541 537.456 111.385 538.55 112.521L540.15 114.482ZM533.455 106.966C534.56 108.195 536.453 106.455 535.259 105.214L533.557 103.358C532.452 102.129 530.66 103.869 531.754 105.11L533.455 106.966ZM526.558 99.7626C527.854 100.899 529.454 98.9391 528.26 97.9068L526.558 96.1553C525.262 94.9143 523.661 96.8745 524.755 98.0112L526.558 99.7626ZM519.356 92.7684C520.562 93.9051 522.253 92.0493 521.058 90.9126L519.153 89.1612C517.959 88.0245 516.257 89.9847 517.553 91.1214L519.356 92.7684ZM511.963 86.1802C513.067 87.2126 514.758 85.3567 513.462 84.2316L511.557 82.5846C510.16 81.4479 508.762 83.6169 510.058 84.5448L511.963 86.1802ZM504.164 79.8008C505.561 80.8331 506.959 78.7685 505.663 77.8406L503.758 76.2979C502.361 75.2656 500.963 77.3302 502.259 78.2582L504.164 79.8008ZM496.263 73.8274C497.458 74.7553 499.058 72.795 497.661 71.7743C496.962 71.264 496.263 70.742 495.565 70.3361C494.37 69.4081 492.77 71.3684 494.167 72.3891C494.855 72.8994 495.553 73.317 496.263 73.8274ZM488.059 68.1671C489.456 69.095 490.662 66.8332 489.355 66.0097L487.258 64.6758C485.861 63.7479 484.554 66.0097 485.962 66.8332L488.059 68.1671ZM479.662 62.9243C480.958 63.7479 482.356 61.5905 480.857 60.6625L478.659 59.433C477.363 58.6095 475.966 60.7669 477.464 61.6948L479.662 62.9243ZM470.961 57.9832C472.562 58.8067 473.565 56.4405 472.167 55.7214L469.97 54.4919C468.471 53.7728 467.366 56.1389 468.764 56.8581L470.961 57.9832ZM462.159 53.4596C463.557 54.1787 464.763 51.9169 463.264 51.0934C462.464 50.7802 461.765 50.3743 460.965 50.0611C459.567 49.342 458.463 51.6038 459.962 52.3229C460.66 52.7289 461.461 53.042 462.159 53.4596ZM453.166 49.2376C454.766 49.8523 455.566 47.4861 454.169 46.8714L451.87 45.8391C450.269 45.2243 449.469 47.6833 450.968 48.2053L453.166 49.2376ZM444.059 45.4215C445.558 46.0363 446.46 43.6701 444.961 43.0553L442.56 42.1274C441.163 41.5127 440.16 43.8788 441.76 44.4936L444.059 45.4215ZM434.761 41.9302C436.26 42.4406 437.162 40.0744 435.561 39.564C434.761 39.2509 433.961 38.9493 433.161 38.7405C431.763 38.1258 430.862 40.492 432.462 41.1067C433.262 41.4083 433.961 41.6171 434.761 41.9302ZM425.362 38.8449C427.064 39.2509 427.56 36.7919 426.061 36.3743L423.66 35.6552C422.06 35.2492 421.462 37.7082 423.063 38.1258L425.362 38.8449ZM415.861 36.0612C417.461 36.4787 418.059 34.0081 416.458 33.5906L414.058 32.9758C412.559 32.5699 411.86 35.0288 413.46 35.4464L415.861 36.0612ZM406.27 33.695C407.769 34.1009 408.569 31.642 406.867 31.12L404.365 30.6096C402.663 30.2965 402.359 32.8714 403.869 33.0802L406.27 33.695ZM396.668 31.5376C398.268 31.8507 398.662 29.3802 397.062 29.067L394.661 28.661C392.96 28.3478 392.565 30.8184 394.166 31.1316L396.668 31.5376ZM386.874 29.7861C388.474 30.0993 388.97 27.6287 387.268 27.3155L384.868 26.9096C383.267 26.5964 382.771 29.1714 384.473 29.4845L386.874 29.7861ZM719.844 129.398C722.65 132.077 721.839 131.764 728.342 129.711C734.044 127.96 731.34 127.241 736.445 130.326C741.043 133.005 748.549 135.882 752.043 138.039C750.747 141.02 739.544 150.798 736.84 154.811C737.843 155.322 738.643 155.635 739.736 156.145C741.438 157.073 741.032 157.073 743.038 155.832C747.434 153.257 761.533 144.917 764.339 143.792C768.036 145.439 777.841 150.589 781.233 150.38C782.834 150.276 785.437 149.766 784.93 147.701C783.634 142.656 774.832 139.883 769.129 137.308C766.83 136.276 767.427 136.485 766.931 133.91C766.334 131.033 762.525 110.967 761.634 109.935C761.33 109.622 758.14 108.183 757.532 107.975C757.228 109.831 757.025 111.779 756.934 113.739L755.931 125.269C755.931 127.02 755.627 129.282 755.334 130.929C752.731 129.688 750.138 128.458 747.434 127.229C734.033 120.641 736.535 125.072 733.334 117.66C731.531 113.542 731.633 111.072 727.632 111.686C728.342 119.933 726.144 125.083 719.844 129.398ZM722.74 119.214C724.239 119.724 723.642 122.091 721.94 121.685L719.641 120.861C718.243 120.444 718.739 117.985 720.441 118.391L722.74 119.214ZM462.261 174.576C460.965 175.713 459.567 173.648 460.762 172.627L461.765 171.804C463.162 170.667 464.56 172.732 463.365 173.764L462.261 174.576ZM469.158 168.916C467.862 169.948 466.363 167.988 467.558 166.955L469.553 165.308C470.849 164.276 472.348 166.341 471.052 167.361L469.158 168.916ZM476.957 162.745C475.763 163.777 474.162 161.817 475.458 160.692L477.453 159.149C478.749 158.221 480.35 160.182 478.952 161.214L476.957 162.745ZM484.959 156.771C483.562 157.804 482.254 155.542 483.562 154.718L485.658 153.28C487.056 152.248 488.363 154.521 487.056 155.333L484.959 156.771ZM493.164 151.111C491.767 152.039 490.459 149.882 491.767 148.954L493.863 147.62C495.26 146.692 496.658 148.757 495.26 149.685L493.164 151.111ZM501.459 145.66C500.163 146.483 498.765 144.43 500.264 143.502L502.361 142.168C503.657 141.345 505.054 143.398 503.657 144.326L501.459 145.66ZM510.058 140.51C508.458 141.333 507.455 139.071 508.762 138.248L510.96 137.018C512.459 136.195 513.563 138.457 512.155 139.28L510.058 140.51ZM518.658 135.673C517.159 136.392 516.155 134.13 517.553 133.411L519.751 132.17C521.25 131.451 522.354 133.713 520.855 134.432L518.658 135.673ZM527.561 131.149C526.062 131.869 524.958 129.607 526.468 128.783L528.666 127.751C530.063 127.032 531.269 129.189 529.77 130.013L527.561 131.149ZM536.453 126.927C534.853 127.542 534.053 125.176 535.552 124.561L537.851 123.529C539.35 122.914 540.251 125.28 538.752 125.895L536.453 126.927ZM554.858 119.516C553.156 120.026 552.66 117.555 554.058 117.149L556.458 116.326C558.16 115.816 558.656 118.286 557.258 118.692L554.858 119.516ZM564.257 116.43C562.758 116.941 562.059 114.47 563.558 113.96L565.959 113.241C567.559 112.823 568.258 115.294 566.658 115.711L564.257 116.43ZM573.758 113.763C572.361 114.169 571.459 111.814 573.161 111.292L575.561 110.677C577.365 110.271 577.658 112.835 576.159 113.148L573.758 113.763ZM583.349 111.396C581.749 111.71 581.354 109.239 582.853 108.926L585.355 108.415C586.956 108.102 587.451 110.573 585.862 110.886L583.349 111.396ZM593.053 109.541C591.554 109.854 590.957 107.383 592.658 106.966C593.459 106.861 594.36 106.652 595.16 106.56C596.659 106.246 597.257 108.717 595.555 109.135C594.755 109.227 593.853 109.332 593.053 109.541ZM602.847 107.998C601.145 108.207 600.942 105.632 602.542 105.527L604.943 105.214C606.645 105.005 606.848 107.58 605.247 107.685L602.847 107.998ZM612.652 106.966C611.052 107.07 610.747 104.599 612.449 104.391L614.951 104.182C616.45 103.973 616.844 106.548 615.053 106.757L612.652 106.966ZM622.446 106.246C620.744 106.351 620.845 103.776 622.344 103.776L624.846 103.671C626.548 103.567 626.548 106.142 624.948 106.142L622.446 106.246ZM632.352 106.038C630.752 106.038 630.651 103.463 632.352 103.463C633.153 103.463 634.054 103.463 634.854 103.463C636.353 103.463 636.556 106.038 634.854 106.038C633.942 106.038 633.153 106.038 632.352 106.038ZM642.248 106.246C640.445 106.038 640.749 103.567 642.349 103.671L644.75 103.776C646.452 103.88 646.249 106.455 644.648 106.351L642.248 106.246ZM652.042 106.757C650.441 106.652 650.644 104.077 652.245 104.182L654.747 104.391C656.347 104.495 656.144 107.07 654.544 106.966L652.042 106.757ZM661.847 107.685C660.348 107.58 660.449 105.005 662.151 105.214C662.951 105.319 663.853 105.423 664.653 105.527C666.152 105.632 666.051 108.207 664.349 107.998C663.549 107.893 662.748 107.789 661.847 107.685ZM671.641 109.019C669.939 108.705 670.536 106.246 672.035 106.548L674.548 106.861C676.149 107.279 675.653 109.749 674.154 109.436L671.641 109.019ZM681.446 110.77C679.846 110.457 680.24 107.893 681.84 108.195L684.342 108.705C685.841 109.019 685.447 111.489 683.846 111.176L681.446 110.77ZM691.048 112.73C689.549 112.521 689.944 109.958 691.646 110.26L694.046 110.874C695.748 111.292 694.948 113.751 693.449 113.345L691.048 112.73ZM700.639 115.201C699.039 114.69 699.738 112.22 701.338 112.73L703.739 113.345C705.339 113.751 704.64 116.222 703.04 115.816L700.639 115.201ZM710.242 117.88C708.641 117.474 709.239 114.899 710.94 115.41L713.239 116.129C714.738 116.535 714.243 119.005 712.541 118.599L710.242 117.88ZM262.483 105.632C263.982 106.142 263.385 108.508 261.683 108.102L259.384 107.279C257.986 106.861 258.381 104.402 260.184 104.913L262.483 105.632ZM2.00372 161.098C0.707642 162.13 -0.791321 160.066 0.504761 159.138L1.50781 158.21C2.90533 157.073 4.30286 159.242 3.10822 160.17L2.00372 161.098ZM8.90118 155.438C7.59381 156.47 6.10614 154.405 7.30078 153.385L9.30688 151.842C10.603 150.81 12.1132 152.77 10.8058 153.802L8.90118 155.438ZM16.7002 149.163C15.5056 150.195 13.9052 148.235 15.2012 147.202L17.1961 145.66C18.4922 144.627 20.0926 146.588 18.6951 147.713L16.7002 149.163ZM24.7021 143.294C23.3046 144.221 21.9972 142.064 23.3046 141.136L25.2994 139.698C26.7984 138.77 28.1058 140.939 26.697 141.855L24.7021 143.294ZM32.8956 137.529C31.4981 138.457 30.202 136.299 31.4981 135.371L33.5944 134.038C34.9919 133.11 36.2993 135.279 34.9919 136.195L32.8956 137.529ZM41.2018 132.077C39.8945 133.005 38.497 130.941 39.8945 129.92L42.0922 128.586C43.2869 127.762 44.7859 129.816 43.2869 130.848L41.2018 132.077ZM49.6997 126.927C48.2007 127.751 47.1977 125.489 48.4938 124.77L50.6915 123.436C52.1905 122.717 53.295 124.979 51.8862 125.698L49.6997 126.927ZM58.3891 122.091C56.8901 122.81 55.7857 120.652 57.2959 119.829L59.4936 118.692C60.9926 117.869 61.9956 120.235 60.5981 120.954L58.3891 122.091ZM67.2927 117.567C65.7937 118.286 64.6892 116.024 66.1882 115.305L68.3859 114.169C69.7834 113.449 70.978 115.711 69.4904 116.43L67.2927 117.567ZM76.1962 113.345C74.5958 113.96 73.7956 111.594 75.2946 110.979L77.4922 109.947C79.0927 109.332 79.9943 111.802 78.4954 112.313L76.1962 113.345ZM85.3928 109.541C83.8938 110.155 82.902 107.789 84.4911 107.07L86.7903 106.246C88.2892 105.632 89.1909 107.998 87.6919 108.613L85.3928 109.541ZM94.5894 106.038C92.8875 106.548 92.3917 103.985 93.7892 103.567L96.1898 102.744C97.8916 102.233 98.3875 104.704 96.9899 105.214L94.5894 106.038ZM103.989 102.848C102.388 103.358 101.791 100.899 103.29 100.482L105.691 99.7626C107.291 99.2523 107.99 101.723 106.389 102.129L103.989 102.848ZM113.49 100.18C112.092 100.586 111.191 98.2199 112.892 97.7096L115.293 97.0949C117.096 96.6889 117.4 99.2523 115.89 99.5654L113.49 100.18ZM123.092 97.9068C121.492 98.22 121.097 95.645 122.596 95.3318L125.098 94.8215C126.698 94.5083 127.104 96.9789 125.493 97.292L123.092 97.9068ZM132.784 95.9582C131.285 96.2713 130.677 93.8008 132.39 93.4876C133.19 93.2788 133.99 93.1744 134.892 92.9772C136.289 92.7685 136.988 95.239 135.286 95.5522C134.385 95.645 133.585 95.8538 132.784 95.9582ZM142.59 94.4155C140.888 94.6243 140.685 92.1537 142.285 91.9449L144.686 91.6317C146.388 91.423 146.591 93.9979 144.99 94.1023L142.59 94.4155ZM152.384 93.3832C150.783 93.592 150.49 91.017 152.181 90.8082L154.683 90.5994C156.182 90.495 156.587 92.9656 154.784 93.1744L152.384 93.3832ZM162.189 92.7684C160.487 92.7684 160.588 90.1935 162.087 90.1935L164.589 90.0891C166.291 90.0891 166.291 92.5597 164.691 92.6641L162.189 92.7684ZM172.084 92.4553C170.484 92.4553 170.382 89.9847 172.084 89.8803C172.884 89.8803 173.786 89.8803 174.586 89.8803C176.085 89.8803 176.288 92.4553 174.586 92.4553C173.684 92.4553 172.884 92.4553 172.084 92.4553ZM181.979 92.6641C180.176 92.5597 180.48 89.9847 182.081 90.0891L184.481 90.1935C186.183 90.2979 185.98 92.8728 184.38 92.7684L181.979 92.6641ZM191.785 93.1744C190.184 93.07 190.286 90.495 191.987 90.7038L194.489 90.9126C196.09 91.017 195.887 93.4876 194.287 93.3832L191.785 93.1744ZM201.578 94.2067C200.08 93.9979 200.181 91.423 201.883 91.6317C202.683 91.7361 203.585 91.8405 204.385 91.9449C205.884 92.0493 205.782 94.6243 204.08 94.4155C203.28 94.3111 202.48 94.2067 201.578 94.2067ZM211.384 95.4362C209.682 95.123 210.29 92.6641 211.778 92.9656L214.28 93.3716C215.88 93.6848 215.385 96.1553 213.886 95.8422L211.384 95.4362ZM221.189 97.1876C219.588 96.8745 219.983 94.4155 221.583 94.7171L224.074 95.123C225.573 95.4362 225.178 97.9996 223.578 97.698L221.189 97.1876ZM230.78 99.2523C229.281 98.9391 229.675 96.3757 231.377 96.7817L233.778 97.292C235.48 97.8024 234.679 100.18 233.18 99.7626L230.78 99.2523ZM240.382 101.618C238.782 101.108 239.48 98.7419 240.979 99.1479L243.481 99.7626C245.082 100.273 244.383 102.639 242.783 102.233L240.382 101.618ZM249.883 104.286C248.384 103.88 248.981 101.41 250.582 101.816L252.982 102.535C254.481 102.941 253.985 105.516 252.284 105.005L249.883 104.286Z" fill="#CCCCCC"/>
</svg>
