<svg width="178" height="177" viewBox="0 0 178 177" fill="none" xmlns="http://www.w3.org/2000/svg">
<g clip-path="url(#clip0_21_649)">
<path d="M174.036 34.7545L54.6831 4.70411C54.0495 4.54459 53.3633 4.63855 52.8343 5.02154C51.678 5.85872 51.6925 7.47251 52.6372 8.33598L76.7013 30.3348C76.7037 30.3369 76.7049 30.3401 76.7047 30.3436L72.3072 75.1846C72.1624 76.7401 73.7468 77.9551 75.2109 77.3862L107.262 64.914C107.265 64.9125 107.27 64.9133 107.273 64.9161L123.871 80.3633C124.663 81.0996 125.917 81.1202 126.732 80.4104L154.322 56.3906C155.212 55.6151 155.306 54.2641 154.53 53.3733C153.754 52.4823 152.404 52.3894 151.513 53.1648L125.383 75.9149C125.378 75.9182 125.373 75.9182 125.369 75.9146L92.2672 45.1088C92.2605 45.1028 92.2644 45.0917 92.2735 45.0908L167.237 39.4504C167.247 39.4496 167.252 39.462 167.245 39.4684L159.436 46.2667C158.548 47.0396 158.367 48.4008 159.117 49.3075C159.887 50.2373 161.265 50.3448 162.17 49.5578L174.934 38.445C175.014 38.375 175.09 38.2965 175.159 38.2149C176.177 37.0179 175.547 35.1348 174.036 34.7545ZM103.778 61.6641C103.784 61.6693 103.782 61.6788 103.775 61.6814L78.264 71.6084C78.2556 71.6115 78.2474 71.6033 78.2507 71.5948L88.0377 47.0345C88.0402 47.0278 88.0489 47.0259 88.0544 47.0308L103.778 61.6641ZM145.348 36.8081L87.0528 41.1943C86.2488 41.256 85.5254 41.7851 85.2266 42.5351L78.0638 60.5097C78.0592 60.5209 78.0426 60.5167 78.0438 60.505L80.8605 31.7864C80.861 31.7806 80.8659 31.7766 80.8716 31.7771L145.348 36.7873C145.361 36.7882 145.361 36.8069 145.348 36.8081ZM148.417 32.7357L79.8409 27.407C79.8386 27.4067 79.8365 27.4059 79.8348 27.4043L61.8136 10.9302C61.8057 10.9229 61.8126 10.9097 61.8231 10.9123L148.42 32.7154C148.432 32.7185 148.429 32.7368 148.417 32.7357Z" fill="#FFE4C0"/>
<path d="M53.4964 92.6627C52.9126 92.5248 52.3141 92.3993 51.7181 92.2898C50.5565 92.0759 49.4417 92.844 49.2276 94.0056C49.0219 95.1208 49.7223 96.1934 50.8065 96.4663C50.8515 96.4777 50.8971 96.4877 50.9434 96.4961C51.4704 96.5933 51.9988 96.704 52.5143 96.8256C53.6639 97.0968 54.8156 96.3847 55.0868 95.2355C55.358 94.0862 54.642 92.9262 53.4964 92.6627Z" fill="#FFE4C0"/>
<path d="M63.3196 96.6898C62.3321 96.0699 61.276 95.4941 60.181 94.9784C59.1135 94.4746 57.8386 94.933 57.3351 96.0017C56.8317 97.0699 57.2899 98.3444 58.3584 98.8479C59.2988 99.2909 60.2032 99.7839 61.0461 100.313C62.034 100.932 63.3745 100.625 63.9942 99.6383C64.6218 98.6375 64.3195 97.3174 63.3196 96.6898Z" fill="#FFE4C0"/>
<path d="M36.8956 110.447C36.9717 109.46 37.1234 108.461 37.347 107.478C37.6088 106.326 36.8841 105.181 35.7356 104.919C34.584 104.657 33.4381 105.379 33.1763 106.53C32.9065 107.717 32.7232 108.924 32.6312 110.118C32.5416 111.279 33.4368 112.326 34.5991 112.414C35.7769 112.505 36.8049 111.624 36.8956 110.447Z" fill="#FFE4C0"/>
<path d="M43.7879 125.802C42.9897 125.27 42.2382 124.654 41.5547 123.969C40.7198 123.133 39.3661 123.132 38.53 123.967C37.6946 124.801 37.6935 126.155 38.528 126.991C39.4118 127.876 40.3834 128.673 41.4173 129.362C42.4397 130.042 43.8637 129.699 44.4659 128.631C45.0087 127.669 44.7067 126.414 43.7879 125.802Z" fill="#FFE4C0"/>
<path d="M56.9229 85.0029C56.4368 83.9265 55.1699 83.4481 54.0938 83.934C53.038 84.4106 51.9883 84.9354 50.9743 85.4944C49.9396 86.064 49.5629 87.3645 50.1323 88.3991C50.6938 89.4193 52.0161 89.8027 53.0368 89.2407C53.9525 88.7365 54.9006 88.2624 55.854 87.8322C56.9305 87.3459 57.4089 86.0795 56.9229 85.0029Z" fill="#FFE4C0"/>
<path d="M38.3022 119.158C37.9136 118.268 37.5968 117.328 37.3609 116.364C37.0802 115.217 35.9221 114.515 34.7753 114.795C33.6282 115.076 32.926 116.234 33.2067 117.381C33.5006 118.582 33.8965 119.756 34.3826 120.869C34.8854 122.022 36.3205 122.494 37.411 121.867C38.3428 121.33 38.7322 120.143 38.3022 119.158Z" fill="#FFE4C0"/>
<path d="M40.738 96.3462C39.7975 95.632 38.456 95.8157 37.7417 96.7562C36.9543 97.7928 36.2619 98.834 35.7388 99.766C35.1608 100.796 35.5273 102.099 36.5569 102.678C36.7259 102.772 36.9026 102.842 37.0823 102.887C37.9957 103.117 38.9854 102.72 39.468 101.859C39.767 101.327 40.3009 100.458 41.1478 99.3422C41.8623 98.4017 41.6789 97.0603 40.738 96.3462Z" fill="#FFE4C0"/>
<path d="M48.1529 89.7024C47.4265 88.7704 46.0831 88.6038 45.1517 89.33C44.2339 90.045 43.3365 90.8039 42.4853 91.5856C41.6149 92.3841 41.5569 93.7369 42.3555 94.6071C43.1439 95.4664 44.5185 95.5243 45.377 94.7369C46.1441 94.033 46.9528 93.3489 47.7803 92.7042C48.712 91.9781 48.8788 90.6341 48.1529 89.7024Z" fill="#FFE4C0"/>
<path d="M71.0143 104.412C70.4128 103.362 69.6865 102.341 68.8556 101.377C68.0846 100.483 66.7343 100.383 65.8396 101.155C64.9452 101.926 64.8456 103.276 65.6169 104.171C66.2698 104.928 66.8369 105.724 67.3026 106.537C67.882 107.549 69.2097 107.909 70.2211 107.33C71.2461 106.743 71.6011 105.437 71.0143 104.412Z" fill="#FFE4C0"/>
<path d="M54.1331 130.546C54.1751 129.365 53.2529 128.375 52.0719 128.333C51.161 128.3 50.2247 128.195 49.2863 128.019L49.1228 127.988C47.9647 127.756 46.8382 128.508 46.607 129.666C46.3827 130.789 47.0821 131.882 48.1802 132.158C48.2147 132.167 48.2502 132.175 48.2854 132.182L48.4997 132.223C49.6451 132.439 50.7959 132.568 51.9202 132.608C53.1006 132.649 54.0912 131.726 54.1331 130.546Z" fill="#FFE4C0"/>
<path d="M72.9757 115.436C73.1937 114.155 73.2698 112.882 73.2016 111.652C73.1362 110.473 72.1267 109.569 70.9478 109.635C69.7684 109.701 68.8658 110.71 68.931 111.889C68.9817 112.8 68.9237 113.752 68.7592 114.718C68.5635 115.867 69.3596 116.99 70.5084 117.186C71.6571 117.381 72.78 116.585 72.9757 115.436Z" fill="#FFE4C0"/>
<path d="M69.6501 119.425C68.6328 118.824 67.322 119.161 66.7207 120.178C66.2201 121.025 65.6437 121.834 65.0079 122.583C64.2434 123.483 64.3537 124.833 65.2543 125.597C66.143 126.352 67.5146 126.239 68.2685 125.351C69.0611 124.417 69.7792 123.409 70.4028 122.354C71.0038 121.337 70.6667 120.026 69.6501 119.425Z" fill="#FFE4C0"/>
<path d="M66.542 82.4695C66.3161 81.3098 65.193 80.5534 64.0339 80.7795C62.8956 81.0012 61.7555 81.2682 60.6461 81.5731C59.7603 81.8163 59.1148 82.626 59.0758 83.5441C59.033 84.5463 59.7199 85.4652 60.6923 85.71C61.0384 85.7971 61.4107 85.7987 61.7792 85.6975C62.7852 85.4211 63.8192 85.1788 64.8521 84.9776C66.0115 84.7516 66.7681 83.6286 66.542 82.4695Z" fill="#FFE4C0"/>
<path d="M63.4176 127.134C62.8377 126.105 61.5341 125.74 60.505 126.32C59.6556 126.798 58.76 127.198 57.8424 127.509C56.7237 127.888 56.1243 129.102 56.5032 130.22C56.8766 131.324 58.1107 131.934 59.215 131.56C60.3834 131.164 61.5237 130.655 62.6038 130.046C63.6327 129.467 63.9971 128.163 63.4176 127.134Z" fill="#FFE4C0"/>
<path d="M74.9028 81.9976C74.8857 80.8171 73.9141 79.8741 72.7336 79.8903C72.1366 79.899 71.5361 79.918 70.9491 79.9466C69.8303 80.0018 68.9242 80.948 68.9161 82.0678C68.9074 83.2796 69.949 84.2776 71.1597 84.2185C71.6975 84.1919 72.2474 84.1746 72.7952 84.1666C73.9757 84.1496 74.9194 83.1785 74.9028 81.9976Z" fill="#FFE4C0"/>
<path d="M10.5721 140.631C10.4488 140.105 10.3351 139.57 10.2337 139.042C10.0112 137.882 8.89029 137.122 7.73063 137.345C6.57097 137.567 5.8108 138.688 6.03344 139.848C6.14565 140.433 6.27145 141.024 6.40762 141.605C6.67309 142.74 7.84097 143.466 8.97682 143.201C10.1267 142.932 10.8409 141.782 10.5721 140.631Z" fill="#FFE4C0"/>
<path d="M9.56216 133.021C9.53196 132.012 9.54353 130.996 9.59744 129.998C9.66105 128.819 8.75722 127.812 7.57699 127.748C6.3978 127.684 5.39035 128.589 5.32668 129.768C5.26629 130.885 5.25314 132.022 5.28707 133.15C5.32198 134.314 6.32371 135.258 7.48892 135.222C8.66987 135.187 9.59801 134.201 9.56216 133.021Z" fill="#FFE4C0"/>
<path d="M9.84974 118.423C8.72673 118.065 7.5212 118.682 7.16036 119.806C6.9038 120.606 6.66978 121.424 6.46509 122.237C6.27729 122.982 6.06759 123.701 6.40516 124.437C6.67934 125.035 7.22837 125.487 7.872 125.631C8.50954 125.777 9.19053 125.618 9.69808 125.206C10.313 124.707 10.4294 124.009 10.6127 123.28C10.7953 122.556 11.0039 121.826 11.2329 121.112C11.5937 119.988 10.9743 118.784 9.84974 118.423Z" fill="#FFE4C0"/>
<path d="M14.3757 109.958C13.3734 109.331 12.055 109.636 11.4287 110.637C10.8328 111.59 10.2699 112.577 9.75638 113.57C9.21332 114.618 9.62382 115.909 10.6727 116.452C11.7077 116.987 13.0192 116.57 13.5546 115.535C14.0155 114.645 14.5203 113.761 15.0549 112.906C15.6809 111.904 15.3773 110.584 14.3757 109.958Z" fill="#FFE4C0"/>
<path d="M28.7647 97.4776C28.1822 96.4497 26.8781 96.0885 25.8498 96.6703C25.5866 96.8191 25.3245 96.972 25.0625 97.1282C24.3612 97.5476 23.6585 98.0007 22.9735 98.4753C22.0028 99.1477 21.7607 100.48 22.433 101.451C23.0962 102.409 24.451 102.655 25.4086 101.991C26.0153 101.571 26.6374 101.17 27.2568 100.8C27.4893 100.661 27.7231 100.525 27.9572 100.392C28.9853 99.81 29.3464 98.5052 28.7647 97.4776Z" fill="#FFE4C0"/>
<path d="M20.7899 102.816C19.9654 101.971 18.6115 101.954 17.7658 102.778C16.9653 103.558 16.1853 104.383 15.4469 105.227C14.6695 106.116 14.7605 107.467 15.65 108.244C16.5283 109.012 17.9009 108.918 18.6673 108.041C19.3308 107.282 20.0321 106.541 20.7515 105.84C21.5974 105.015 21.6143 103.661 20.7899 102.816Z" fill="#FFE4C0"/>
<path d="M36.4033 94.7305C36.0636 93.5997 34.8711 92.9582 33.74 93.2978C33.1648 93.4705 32.5858 93.6596 32.0184 93.8597C30.9046 94.2531 30.3201 95.4743 30.7132 96.588C31.1006 97.6865 32.3416 98.2809 33.4414 97.8932C33.9454 97.7155 34.4595 97.5474 34.9706 97.394C36.1017 97.0541 36.7433 95.8616 36.4033 94.7305Z" fill="#FFE4C0"/>
</g>
<defs>
<clipPath id="clip0_21_649">
<rect width="145.698" height="145.698" fill="white" transform="translate(36) rotate(14.132)"/>
</clipPath>
</defs>
</svg>
